<?xml version="1.0" standalone="no"?><svg xmlns="http://www.w3.org/2000/svg" viewBox="0 0 1440 320"><path fill="#f8f6fe" fill-opacity="1" d="M0,0L12.6,42.7C25.3,85,51,171,76,181.3C101.1,192,126,128,152,106.7C176.8,85,202,107,227,144C252.6,181,278,235,303,229.3C328.4,224,354,160,379,122.7C404.2,85,429,75,455,90.7C480,107,505,149,531,149.3C555.8,149,581,107,606,112C631.6,117,657,171,682,165.3C707.4,160,733,96,758,90.7C783.2,85,808,139,834,144C858.9,149,884,107,909,96C934.7,85,960,107,985,106.7C1010.5,107,1036,85,1061,117.3C1086.3,149,1112,235,1137,229.3C1162.1,224,1187,128,1213,106.7C1237.9,85,1263,139,1288,154.7C1313.7,171,1339,149,1364,160C1389.5,171,1415,213,1427,234.7L1440,256L1440,320L1427.4,320C1414.7,320,1389,320,1364,320C1338.9,320,1314,320,1288,320C1263.2,320,1238,320,1213,320C1187.4,320,1162,320,1137,320C1111.6,320,1086,320,1061,320C1035.8,320,1011,320,985,320C960,320,935,320,909,320C884.2,320,859,320,834,320C808.4,320,783,320,758,320C732.6,320,707,320,682,320C656.8,320,632,320,606,320C581.1,320,556,320,531,320C505.3,320,480,320,455,320C429.5,320,404,320,379,320C353.7,320,328,320,303,320C277.9,320,253,320,227,320C202.1,320,177,320,152,320C126.3,320,101,320,76,320C50.5,320,25,320,13,320L0,320Z"></path></svg>