<?xml version="1.0" standalone="no"?><svg xmlns="http://www.w3.org/2000/svg" viewBox="0 0 1440 320"><path fill="#7754f6" fill-opacity="1" d="M0,256L12,218.7C24,181,48,107,72,90.7C96,75,120,117,144,149.3C168,181,192,203,216,176C240,149,264,75,288,85.3C312,96,336,192,360,213.3C384,235,408,181,432,165.3C456,149,480,171,504,186.7C528,203,552,213,576,213.3C600,213,624,203,648,197.3C672,192,696,192,720,192C744,192,768,192,792,170.7C816,149,840,107,864,90.7C888,75,912,85,936,112C960,139,984,181,1008,181.3C1032,181,1056,139,1080,128C1104,117,1128,139,1152,165.3C1176,192,1200,224,1224,229.3C1248,235,1272,213,1296,197.3C1320,181,1344,171,1368,186.7C1392,203,1416,245,1428,266.7L1440,288L1440,0L1428,0C1416,0,1392,0,1368,0C1344,0,1320,0,1296,0C1272,0,1248,0,1224,0C1200,0,1176,0,1152,0C1128,0,1104,0,1080,0C1056,0,1032,0,1008,0C984,0,960,0,936,0C912,0,888,0,864,0C840,0,816,0,792,0C768,0,744,0,720,0C696,0,672,0,648,0C624,0,600,0,576,0C552,0,528,0,504,0C480,0,456,0,432,0C408,0,384,0,360,0C336,0,312,0,288,0C264,0,240,0,216,0C192,0,168,0,144,0C120,0,96,0,72,0C48,0,24,0,12,0L0,0Z"></path></svg>