<?xml version="1.0" standalone="no"?><svg xmlns="http://www.w3.org/2000/svg" viewBox="0 0 1440 320"><path fill="#7754f6" fill-opacity="1" d="M0,256L12,218.7C24,181,48,107,72,90.7C96,75,120,117,144,149.3C168,181,192,203,216,176C240,149,264,75,288,85.3C312,96,336,192,360,213.3C384,235,408,181,432,165.3C456,149,480,171,504,186.7C528,203,552,213,576,213.3C600,213,624,203,648,197.3C672,192,696,192,720,192C744,192,768,192,792,170.7C816,149,840,107,864,90.7C888,75,912,85,936,112C960,139,984,181,1008,181.3C1032,181,1056,139,1080,128C1104,117,1128,139,1152,165.3C1176,192,1200,224,1224,229.3C1248,235,1272,213,1296,197.3C1320,181,1344,171,1368,186.7C1392,203,1416,245,1428,266.7L1440,288L1440,320L1428,320C1416,320,1392,320,1368,320C1344,320,1320,320,1296,320C1272,320,1248,320,1224,320C1200,320,1176,320,1152,320C1128,320,1104,320,1080,320C1056,320,1032,320,1008,320C984,320,960,320,936,320C912,320,888,320,864,320C840,320,816,320,792,320C768,320,744,320,720,320C696,320,672,320,648,320C624,320,600,320,576,320C552,320,528,320,504,320C480,320,456,320,432,320C408,320,384,320,360,320C336,320,312,320,288,320C264,320,240,320,216,320C192,320,168,320,144,320C120,320,96,320,72,320C48,320,24,320,12,320L0,320Z"></path></svg>