<?xml version="1.0" standalone="no"?><svg xmlns="http://www.w3.org/2000/svg" viewBox="0 0 1440 320"><path fill="#f8f6fe" fill-opacity="1" d="M0,192L13.3,192C26.7,192,53,192,80,176C106.7,160,133,128,160,112C186.7,96,213,96,240,101.3C266.7,107,293,117,320,106.7C346.7,96,373,64,400,58.7C426.7,53,453,75,480,106.7C506.7,139,533,181,560,202.7C586.7,224,613,224,640,213.3C666.7,203,693,181,720,181.3C746.7,181,773,203,800,202.7C826.7,203,853,181,880,160C906.7,139,933,117,960,128C986.7,139,1013,181,1040,181.3C1066.7,181,1093,139,1120,128C1146.7,117,1173,139,1200,154.7C1226.7,171,1253,181,1280,192C1306.7,203,1333,213,1360,192C1386.7,171,1413,117,1427,90.7L1440,64L1440,0L1426.7,0C1413.3,0,1387,0,1360,0C1333.3,0,1307,0,1280,0C1253.3,0,1227,0,1200,0C1173.3,0,1147,0,1120,0C1093.3,0,1067,0,1040,0C1013.3,0,987,0,960,0C933.3,0,907,0,880,0C853.3,0,827,0,800,0C773.3,0,747,0,720,0C693.3,0,667,0,640,0C613.3,0,587,0,560,0C533.3,0,507,0,480,0C453.3,0,427,0,400,0C373.3,0,347,0,320,0C293.3,0,267,0,240,0C213.3,0,187,0,160,0C133.3,0,107,0,80,0C53.3,0,27,0,13,0L0,0Z"></path></svg>