<?xml version="1.0" standalone="no"?><svg xmlns="http://www.w3.org/2000/svg" viewBox="0 0 1440 320"><path fill="#f8f6fe" fill-opacity="1" d="M0,160L13.3,154.7C26.7,149,53,139,80,149.3C106.7,160,133,192,160,186.7C186.7,181,213,139,240,106.7C266.7,75,293,53,320,37.3C346.7,21,373,11,400,32C426.7,53,453,107,480,128C506.7,149,533,139,560,154.7C586.7,171,613,213,640,197.3C666.7,181,693,107,720,112C746.7,117,773,203,800,245.3C826.7,288,853,288,880,277.3C906.7,267,933,245,960,197.3C986.7,149,1013,75,1040,64C1066.7,53,1093,107,1120,160C1146.7,213,1173,267,1200,282.7C1226.7,299,1253,277,1280,240C1306.7,203,1333,149,1360,117.3C1386.7,85,1413,75,1427,69.3L1440,64L1440,320L1426.7,320C1413.3,320,1387,320,1360,320C1333.3,320,1307,320,1280,320C1253.3,320,1227,320,1200,320C1173.3,320,1147,320,1120,320C1093.3,320,1067,320,1040,320C1013.3,320,987,320,960,320C933.3,320,907,320,880,320C853.3,320,827,320,800,320C773.3,320,747,320,720,320C693.3,320,667,320,640,320C613.3,320,587,320,560,320C533.3,320,507,320,480,320C453.3,320,427,320,400,320C373.3,320,347,320,320,320C293.3,320,267,320,240,320C213.3,320,187,320,160,320C133.3,320,107,320,80,320C53.3,320,27,320,13,320L0,320Z"></path></svg>